<svg xmlns="http://www.w3.org/2000/svg" enable-background="new 0 0 512 512" viewBox="0 0 512 512"><g display="none"><path fill="#D8D8D8" stroke="#000" stroke-linecap="round" stroke-linejoin="round" stroke-miterlimit="10" stroke-width="16" d="
		M240,56c-70.7,0-128,57.3-128,128s57.3,128,128,128s128-57.3,128-128H240V56z"/><path fill="#D8D8D8" stroke="#000" stroke-linecap="round" stroke-linejoin="round" stroke-miterlimit="10" stroke-width="16" d="
		M272,24v128h128C400,81.3,342.7,24,272,24z"/><polyline fill="none" stroke="#000" stroke-linecap="round" stroke-linejoin="round" stroke-miterlimit="10" stroke-width="16" points="168 240 40 240 40 128"/><line x1="80" x2="144" y1="32" y2="32" fill="none" stroke="#000" stroke-linecap="round" stroke-linejoin="round" stroke-miterlimit="10" stroke-width="16"/><line x1="32" x2="144" y1="64" y2="64" fill="none" stroke="#000" stroke-linecap="round" stroke-linejoin="round" stroke-miterlimit="10" stroke-width="16"/><line x1="32" x2="104" y1="96" y2="96" fill="none" stroke="#000" stroke-linecap="round" stroke-linejoin="round" stroke-miterlimit="10" stroke-width="16"/><line x1="424" x2="488" y1="224" y2="224" fill="none" stroke="#000" stroke-linecap="round" stroke-linejoin="round" stroke-miterlimit="10" stroke-width="16"/><line x1="376" x2="488" y1="256" y2="256" fill="none" stroke="#000" stroke-linecap="round" stroke-linejoin="round" stroke-miterlimit="10" stroke-width="16"/><line x1="376" x2="488" y1="288" y2="288" fill="none" stroke="#000" stroke-linecap="round" stroke-linejoin="round" stroke-miterlimit="10" stroke-width="16"/><polyline fill="none" stroke="#000" stroke-linecap="round" stroke-linejoin="round" stroke-miterlimit="10" stroke-width="16" points="352 80 448 80 448 192"/><polyline fill="none" stroke="#000" stroke-linecap="round" stroke-linejoin="round" stroke-miterlimit="10" stroke-width="16" points="24 280 24 488 288 488"/><rect width="32" height="160" x="56" y="328" fill="#D8D8D8" stroke="#000" stroke-linecap="round" stroke-linejoin="round" stroke-miterlimit="10" stroke-width="16"/><rect width="32" height="136" x="184" y="352" fill="#D8D8D8" stroke="#000" stroke-linecap="round" stroke-linejoin="round" stroke-miterlimit="10" stroke-width="16"/><rect width="32" height="96" x="248" y="392" fill="#D8D8D8" stroke="#000" stroke-linecap="round" stroke-linejoin="round" stroke-miterlimit="10" stroke-width="16"/><rect width="32" height="96" x="120" y="392" fill="#D8D8D8" stroke="#000" stroke-linecap="round" stroke-linejoin="round" stroke-miterlimit="10" stroke-width="16"/><line x1="336" x2="488" y1="488" y2="488" fill="#D8D8D8" stroke="#000" stroke-linecap="round" stroke-linejoin="round" stroke-miterlimit="10" stroke-width="16"/><line x1="336" x2="400" y1="456" y2="456" fill="#D8D8D8" stroke="#000" stroke-linecap="round" stroke-linejoin="round" stroke-miterlimit="10" stroke-width="16"/><line x1="432" x2="488" y1="456" y2="456" fill="#D8D8D8" stroke="#000" stroke-linecap="round" stroke-linejoin="round" stroke-miterlimit="10" stroke-width="16"/><line x1="336" x2="352" y1="424" y2="424" fill="#D8D8D8" stroke="#000" stroke-linecap="round" stroke-linejoin="round" stroke-miterlimit="10" stroke-width="16"/><line x1="384" x2="432" y1="424" y2="424" fill="#D8D8D8" stroke="#000" stroke-linecap="round" stroke-linejoin="round" stroke-miterlimit="10" stroke-width="16"/><line x1="464" x2="488" y1="424" y2="424" fill="#D8D8D8" stroke="#000" stroke-linecap="round" stroke-linejoin="round" stroke-miterlimit="10" stroke-width="16"/><polyline fill="none" stroke="#000" stroke-linecap="round" stroke-linejoin="round" stroke-miterlimit="10" stroke-width="16" points="408 392 408 360 280 360"/></g><g display="none"><path d="M104,184c0,16.9,3.1,33.1,8.8,48H48V128c0-4.4-3.6-8-8-8s-8,3.6-8,8v112c0,4.4,3.6,8,8,8h80c22.9,42.8,68.1,72,120,72
			c75,0,136-61,136-136c0-4.4-3.6-8-8-8H248V56c0-4.4-3.6-8-8-8C165,48,104,109,104,184z M232,64.3V184c0,4.4,3.6,8,8,8h119.7
			c-4.1,62.5-56.3,112-119.7,112c-42.7,0-80.2-22.4-101.5-56H168c4.4,0,8-3.6,8-8s-3.6-8-8-8h-38c-6.4-14.7-10-30.9-10-48
			C120,120.5,169.5,68.4,232,64.3z"/><path d="M272 160h128c4.4 0 8-3.6 8-8 0-23.1-5.8-44.9-16-64h48v104c0 4.4 3.6 8 8 8s8-3.6 8-8V80c0-4.4-3.6-8-8-8h-66.1C357.2 38.1 317.1 16 272 16c-4.4 0-8 3.6-8 8v128C264 156.4 267.6 160 272 160zM280 32.3c32.2 2.1 61 17.1 81.4 39.7H352c-4.4 0-8 3.6-8 8s3.6 8 8 8h21.5c10.4 16.4 16.9 35.5 18.3 56H280V32.3zM80 40h64c4.4 0 8-3.6 8-8s-3.6-8-8-8H80c-4.4 0-8 3.6-8 8S75.6 40 80 40zM32 72h112c4.4 0 8-3.6 8-8s-3.6-8-8-8H32c-4.4 0-8 3.6-8 8S27.6 72 32 72zM32 104h72c4.4 0 8-3.6 8-8s-3.6-8-8-8H32c-4.4 0-8 3.6-8 8S27.6 104 32 104zM416 224c0 4.4 3.6 8 8 8h64c4.4 0 8-3.6 8-8s-3.6-8-8-8h-64C419.6 216 416 219.6 416 224zM488 248H376c-4.4 0-8 3.6-8 8s3.6 8 8 8h112c4.4 0 8-3.6 8-8S492.4 248 488 248zM488 280H376c-4.4 0-8 3.6-8 8s3.6 8 8 8h112c4.4 0 8-3.6 8-8S492.4 280 488 280zM288 480v-88c0-4.4-3.6-8-8-8h-32c-4.4 0-8 3.6-8 8v88h-16V352c0-4.4-3.6-8-8-8h-32c-4.4 0-8 3.6-8 8v128h-16v-88c0-4.4-3.6-8-8-8h-32c-4.4 0-8 3.6-8 8v88H96V328c0-4.4-3.6-8-8-8H56c-4.4 0-8 3.6-8 8v152H32V280c0-4.4-3.6-8-8-8s-8 3.6-8 8v208c0 4.4 3.6 8 8 8h32 32 32 32 32 32 32 32 8c4.4 0 8-3.6 8-8S292.4 480 288 480zM64 480V336h16v144H64zM128 480v-80h16v80H128zM192 480V360h16v120H192zM256 480v-80h16v80H256zM488 480H336c-4.4 0-8 3.6-8 8s3.6 8 8 8h152c4.4 0 8-3.6 8-8S492.4 480 488 480zM336 464h64c4.4 0 8-3.6 8-8s-3.6-8-8-8h-64c-4.4 0-8 3.6-8 8S331.6 464 336 464zM488 448h-56c-4.4 0-8 3.6-8 8s3.6 8 8 8h56c4.4 0 8-3.6 8-8S492.4 448 488 448zM336 432h16c4.4 0 8-3.6 8-8s-3.6-8-8-8h-16c-4.4 0-8 3.6-8 8S331.6 432 336 432zM440 424c0-4.4-3.6-8-8-8h-48c-4.4 0-8 3.6-8 8s3.6 8 8 8h48C436.4 432 440 428.4 440 424zM488 416h-24c-4.4 0-8 3.6-8 8s3.6 8 8 8h24c4.4 0 8-3.6 8-8S492.4 416 488 416zM408 352H280c-4.4 0-8 3.6-8 8s3.6 8 8 8h120v24c0 4.4 3.6 8 8 8s8-3.6 8-8v-32C416 355.6 412.4 352 408 352z"/></g><g display="none"><path d="M130,232H48V128c0-4.4-3.6-8-8-8s-8,3.6-8,8v112c0,4.4,3.6,8,8,8h98.5c21.3,33.6,58.8,56,101.5,56
			c63.5,0,115.6-49.5,119.7-112H240c-4.4,0-8-3.6-8-8V64.3c-62.5,4.1-112,56.3-112,119.7C120,201.1,123.6,217.3,130,232z"/><path d="M373.5 88H440v104c0 4.4 3.6 8 8 8s8-3.6 8-8V80c0-4.4-3.6-8-8-8h-86.6C341 49.3 312.2 34.4 280 32.3V144h111.7C390.4 123.5 383.9 104.4 373.5 88zM80 40h64c4.4 0 8-3.6 8-8s-3.6-8-8-8H80c-4.4 0-8 3.6-8 8S75.6 40 80 40zM32 72h112c4.4 0 8-3.6 8-8s-3.6-8-8-8H32c-4.4 0-8 3.6-8 8S27.6 72 32 72zM32 104h72c4.4 0 8-3.6 8-8s-3.6-8-8-8H32c-4.4 0-8 3.6-8 8S27.6 104 32 104zM416 224c0 4.4 3.6 8 8 8h64c4.4 0 8-3.6 8-8s-3.6-8-8-8h-64C419.6 216 416 219.6 416 224zM488 248H376c-4.4 0-8 3.6-8 8s3.6 8 8 8h112c4.4 0 8-3.6 8-8S492.4 248 488 248zM488 280H376c-4.4 0-8 3.6-8 8s3.6 8 8 8h112c4.4 0 8-3.6 8-8S492.4 280 488 280zM488 480H336c-4.4 0-8 3.6-8 8s3.6 8 8 8h152c4.4 0 8-3.6 8-8S492.4 480 488 480zM336 464h64c4.4 0 8-3.6 8-8s-3.6-8-8-8h-64c-4.4 0-8 3.6-8 8S331.6 464 336 464zM488 448h-56c-4.4 0-8 3.6-8 8s3.6 8 8 8h56c4.4 0 8-3.6 8-8S492.4 448 488 448zM336 432h16c4.4 0 8-3.6 8-8s-3.6-8-8-8h-16c-4.4 0-8 3.6-8 8S331.6 432 336 432zM440 424c0-4.4-3.6-8-8-8h-48c-4.4 0-8 3.6-8 8s3.6 8 8 8h48C436.4 432 440 428.4 440 424zM488 416h-24c-4.4 0-8 3.6-8 8s3.6 8 8 8h24c4.4 0 8-3.6 8-8S492.4 416 488 416zM408 352H280c-4.4 0-8 3.6-8 8s3.6 8 8 8h120v24c0 4.4 3.6 8 8 8s8-3.6 8-8v-32C416 355.6 412.4 352 408 352zM288 480h-8v-80h-32v80h-32V360h-32v120h-32v-80h-32v80H88V336H56v144H32V280c0-4.4-3.6-8-8-8s-8 3.6-8 8v208c0 4.4 3.6 8 8 8h264c4.4 0 8-3.6 8-8S292.4 480 288 480z"/></g><path fill="#F3D165" d="M240,56c-70.7,0-128,57.3-128,128s57.3,128,128,128s128-57.3,128-128H240V56z"/><path fill="#EF7E4B" d="M272,24v128h128C400,81.3,342.7,24,272,24z"/><rect width="32" height="160" x="56" y="328" fill="#EF7E4B"/><rect width="32" height="136" x="184" y="352" fill="#EF7E4B"/><rect width="32" height="96" x="248" y="392" fill="#7ABCDD"/><rect width="32" height="96" x="120" y="392" fill="#7ABCDD"/><path fill="#006170" d="M144 40H80c-4.4 0-8-3.6-8-8s3.6-8 8-8h64c4.4 0 8 3.6 8 8S148.4 40 144 40zM152 64c0-4.4-3.6-8-8-8H32c-4.4 0-8 3.6-8 8s3.6 8 8 8h112C148.4 72 152 68.4 152 64zM112 96c0-4.4-3.6-8-8-8H32c-4.4 0-8 3.6-8 8s3.6 8 8 8h72C108.4 104 112 100.4 112 96zM496 224c0-4.4-3.6-8-8-8h-64c-4.4 0-8 3.6-8 8s3.6 8 8 8h64C492.4 232 496 228.4 496 224zM496 256c0-4.4-3.6-8-8-8H376c-4.4 0-8 3.6-8 8s3.6 8 8 8h112C492.4 264 496 260.4 496 256zM496 288c0-4.4-3.6-8-8-8H376c-4.4 0-8 3.6-8 8s3.6 8 8 8h112C492.4 296 496 292.4 496 288zM496 488c0-4.4-3.6-8-8-8H336c-4.4 0-8 3.6-8 8s3.6 8 8 8h152C492.4 496 496 492.4 496 488zM408 456c0-4.4-3.6-8-8-8h-64c-4.4 0-8 3.6-8 8s3.6 8 8 8h64C404.4 464 408 460.4 408 456zM496 456c0-4.4-3.6-8-8-8h-56c-4.4 0-8 3.6-8 8s3.6 8 8 8h56C492.4 464 496 460.4 496 456zM360 424c0-4.4-3.6-8-8-8h-16c-4.4 0-8 3.6-8 8s3.6 8 8 8h16C356.4 432 360 428.4 360 424zM440 424c0-4.4-3.6-8-8-8h-48c-4.4 0-8 3.6-8 8s3.6 8 8 8h48C436.4 432 440 428.4 440 424zM496 424c0-4.4-3.6-8-8-8h-24c-4.4 0-8 3.6-8 8s3.6 8 8 8h24C492.4 432 496 428.4 496 424zM168 248H40c-4.4 0-8-3.6-8-8V128c0-4.4 3.6-8 8-8s8 3.6 8 8v104h120c4.4 0 8 3.6 8 8S172.4 248 168 248zM456 192V80c0-4.4-3.6-8-8-8h-96c-4.4 0-8 3.6-8 8s3.6 8 8 8h88v104c0 4.4 3.6 8 8 8S456 196.4 456 192zM416 392v-32c0-4.4-3.6-8-8-8H280c-4.4 0-8 3.6-8 8s3.6 8 8 8h120v24c0 4.4 3.6 8 8 8S416 396.4 416 392zM296 488c0-4.4-3.6-8-8-8H32V280c0-4.4-3.6-8-8-8s-8 3.6-8 8v208c0 4.4 3.6 8 8 8h264C292.4 496 296 492.4 296 488z"/><g display="none"><path fill="#F3D165" d="M240,56c-70.7,0-128,57.3-128,128s57.3,128,128,128s128-57.3,128-128H240V56z"/><path fill="#EF7E4B" d="M272,24v128h128C400,81.3,342.7,24,272,24z"/><rect width="32" height="160" x="56" y="328" fill="#EF7E4B"/><rect width="32" height="136" x="184" y="352" fill="#EF7E4B"/><rect width="32" height="96" x="248" y="392" fill="#7ABCDD"/><rect width="32" height="96" x="120" y="392" fill="#7ABCDD"/><path fill="#006170" d="M144 40H80c-4.4 0-8-3.6-8-8s3.6-8 8-8h64c4.4 0 8 3.6 8 8S148.4 40 144 40zM152 64c0-4.4-3.6-8-8-8H32c-4.4 0-8 3.6-8 8s3.6 8 8 8h112C148.4 72 152 68.4 152 64zM112 96c0-4.4-3.6-8-8-8H32c-4.4 0-8 3.6-8 8s3.6 8 8 8h72C108.4 104 112 100.4 112 96zM496 224c0-4.4-3.6-8-8-8h-64c-4.4 0-8 3.6-8 8s3.6 8 8 8h64C492.4 232 496 228.4 496 224zM496 256c0-4.4-3.6-8-8-8H376c-4.4 0-8 3.6-8 8s3.6 8 8 8h112C492.4 264 496 260.4 496 256zM496 288c0-4.4-3.6-8-8-8H376c-4.4 0-8 3.6-8 8s3.6 8 8 8h112C492.4 296 496 292.4 496 288zM496 488c0-4.4-3.6-8-8-8H336c-4.4 0-8 3.6-8 8s3.6 8 8 8h152C492.4 496 496 492.4 496 488zM408 456c0-4.4-3.6-8-8-8h-64c-4.4 0-8 3.6-8 8s3.6 8 8 8h64C404.4 464 408 460.4 408 456zM496 456c0-4.4-3.6-8-8-8h-56c-4.4 0-8 3.6-8 8s3.6 8 8 8h56C492.4 464 496 460.4 496 456zM360 424c0-4.4-3.6-8-8-8h-16c-4.4 0-8 3.6-8 8s3.6 8 8 8h16C356.4 432 360 428.4 360 424zM440 424c0-4.4-3.6-8-8-8h-48c-4.4 0-8 3.6-8 8s3.6 8 8 8h48C436.4 432 440 428.4 440 424zM496 424c0-4.4-3.6-8-8-8h-24c-4.4 0-8 3.6-8 8s3.6 8 8 8h24C492.4 432 496 428.4 496 424zM168 248H40c-4.4 0-8-3.6-8-8V128c0-4.4 3.6-8 8-8s8 3.6 8 8v104h120c4.4 0 8 3.6 8 8S172.4 248 168 248zM456 192V80c0-4.4-3.6-8-8-8h-96c-4.4 0-8 3.6-8 8s3.6 8 8 8h88v104c0 4.4 3.6 8 8 8S456 196.4 456 192zM416 392v-32c0-4.4-3.6-8-8-8H280c-4.4 0-8 3.6-8 8s3.6 8 8 8h120v24c0 4.4 3.6 8 8 8S416 396.4 416 392zM296 488c0-4.4-3.6-8-8-8H32V280c0-4.4-3.6-8-8-8s-8 3.6-8 8v208c0 4.4 3.6 8 8 8h264C292.4 496 296 492.4 296 488z"/><path d="M104,184c0,16.9,3.1,33.1,8.8,48H48V128c0-4.4-3.6-8-8-8s-8,3.6-8,8v112c0,4.4,3.6,8,8,8h80c22.9,42.8,68.1,72,120,72
			c75,0,136-61,136-136c0-4.4-3.6-8-8-8H248V56c0-4.4-3.6-8-8-8C165,48,104,109,104,184z M232,64.3V184c0,4.4,3.6,8,8,8h119.7
			c-4.1,62.5-56.3,112-119.7,112c-42.7,0-80.2-22.4-101.5-56H168c4.4,0,8-3.6,8-8s-3.6-8-8-8h-38c-6.4-14.7-10-30.9-10-48
			C120,120.5,169.5,68.4,232,64.3z"/><path d="M272 160h128c4.4 0 8-3.6 8-8 0-23.1-5.8-44.9-16-64h48v104c0 4.4 3.6 8 8 8s8-3.6 8-8V80c0-4.4-3.6-8-8-8h-66.1C357.2 38.1 317.1 16 272 16c-4.4 0-8 3.6-8 8v128C264 156.4 267.6 160 272 160zM280 32.3c32.2 2.1 61 17.1 81.4 39.7H352c-4.4 0-8 3.6-8 8s3.6 8 8 8h21.5c10.4 16.4 16.9 35.5 18.3 56H280V32.3zM80 40h64c4.4 0 8-3.6 8-8s-3.6-8-8-8H80c-4.4 0-8 3.6-8 8S75.6 40 80 40zM32 72h112c4.4 0 8-3.6 8-8s-3.6-8-8-8H32c-4.4 0-8 3.6-8 8S27.6 72 32 72zM32 104h72c4.4 0 8-3.6 8-8s-3.6-8-8-8H32c-4.4 0-8 3.6-8 8S27.6 104 32 104zM416 224c0 4.4 3.6 8 8 8h64c4.4 0 8-3.6 8-8s-3.6-8-8-8h-64C419.6 216 416 219.6 416 224zM488 248H376c-4.4 0-8 3.6-8 8s3.6 8 8 8h112c4.4 0 8-3.6 8-8S492.4 248 488 248zM488 280H376c-4.4 0-8 3.6-8 8s3.6 8 8 8h112c4.4 0 8-3.6 8-8S492.4 280 488 280zM288 480v-88c0-4.4-3.6-8-8-8h-32c-4.4 0-8 3.6-8 8v88h-16V352c0-4.4-3.6-8-8-8h-32c-4.4 0-8 3.6-8 8v128h-16v-88c0-4.4-3.6-8-8-8h-32c-4.4 0-8 3.6-8 8v88H96V328c0-4.4-3.6-8-8-8H56c-4.4 0-8 3.6-8 8v152H32V280c0-4.4-3.6-8-8-8s-8 3.6-8 8v208c0 4.4 3.6 8 8 8h32 32 32 32 32 32 32 32 8c4.4 0 8-3.6 8-8S292.4 480 288 480zM64 480V336h16v144H64zM128 480v-80h16v80H128zM192 480V360h16v120H192zM256 480v-80h16v80H256zM488 480H336c-4.4 0-8 3.6-8 8s3.6 8 8 8h152c4.4 0 8-3.6 8-8S492.4 480 488 480zM336 464h64c4.4 0 8-3.6 8-8s-3.6-8-8-8h-64c-4.4 0-8 3.6-8 8S331.6 464 336 464zM488 448h-56c-4.4 0-8 3.6-8 8s3.6 8 8 8h56c4.4 0 8-3.6 8-8S492.4 448 488 448zM336 432h16c4.4 0 8-3.6 8-8s-3.6-8-8-8h-16c-4.4 0-8 3.6-8 8S331.6 432 336 432zM440 424c0-4.4-3.6-8-8-8h-48c-4.4 0-8 3.6-8 8s3.6 8 8 8h48C436.4 432 440 428.4 440 424zM488 416h-24c-4.4 0-8 3.6-8 8s3.6 8 8 8h24c4.4 0 8-3.6 8-8S492.4 416 488 416zM408 352H280c-4.4 0-8 3.6-8 8s3.6 8 8 8h120v24c0 4.4 3.6 8 8 8s8-3.6 8-8v-32C416 355.6 412.4 352 408 352z"/></g></svg>