<svg id="SvgjsSvg1015" width="288" height="288" xmlns="http://www.w3.org/2000/svg" version="1.1" xmlns:xlink="http://www.w3.org/1999/xlink" xmlns:svgjs="http://svgjs.com/svgjs"><defs id="SvgjsDefs1016"></defs><g id="SvgjsG1017"><svg xmlns="http://www.w3.org/2000/svg" width="288" height="288" enable-background="new 0 0 32 32" viewBox="0 0 32 32"><path fill="#000000" d="M16.499 9.162c-2.735 0-5.469-.315-8.123-.937C8.107 8.162 7.94 7.894 8.003 7.624c.063-.268.325-.435.602-.373 5.793 1.358 11.95 1.187 17.678-.498.27-.076.544.073.621.338.078.266-.073.543-.338.621C23.295 8.674 19.908 9.162 16.499 9.162zM26.424 26.362c-.047 0-.094-.007-.142-.021-6.359-1.871-13.207-1.871-19.566 0-.269.075-.544-.073-.621-.338-.078-.266.073-.543.338-.621 6.545-1.926 13.588-1.926 20.133 0 .265.078.416.355.338.621C26.84 26.222 26.64 26.362 26.424 26.362z" class="color263238 svgShape"></path><path fill="#000000" d="M15.888 30.639c-.098 0-.195-.028-.282-.087-4.667-3.185-7.453-8.422-7.453-14.009 0-4.527 1.781-8.788 5.017-11.998.197-.197.514-.193.707.002.195.196.193.513-.002.707-3.045 3.021-4.722 7.03-4.722 11.289 0 5.256 2.623 10.185 7.018 13.183.228.155.286.467.131.695C16.204 30.563 16.047 30.639 15.888 30.639zM17.153 30.639c-.159 0-.316-.076-.413-.218-.155-.229-.097-.54.131-.695 4.395-2.998 7.018-7.927 7.018-13.183S21.266 6.358 16.871 3.36c-.228-.155-.286-.467-.131-.695.156-.228.468-.284.695-.131 4.667 3.185 7.453 8.422 7.453 14.009s-2.786 10.824-7.453 14.009C17.349 30.61 17.251 30.639 17.153 30.639z" class="color263238 svgShape"></path><path fill="#000000" d="M16.499,30.49c-0.276,0-0.5-0.224-0.5-0.5V3.096c0-0.276,0.224-0.5,0.5-0.5s0.5,0.224,0.5,0.5V29.99
				C16.999,30.267,16.775,30.49,16.499,30.49z" class="color263238 svgShape"></path><path fill="#000000" d="M30.446,17.043H4.552c-0.276,0-0.5-0.224-0.5-0.5s0.224-0.5,0.5-0.5h25.895c0.276,0,0.5,0.224,0.5,0.5
				S30.723,17.043,30.446,17.043z" class="color263238 svgShape"></path><path fill="#000000" d="M16.499,31.043c-7.995,0-14.5-6.505-14.5-14.5c0-3.521,1.278-6.919,3.6-9.565
			C5.781,6.77,6.096,6.75,6.305,6.932C6.512,7.114,6.532,7.43,6.351,7.638c-2.161,2.463-3.352,5.626-3.352,8.905
			c0,7.444,6.056,13.5,13.5,13.5s13.5-6.056,13.5-13.5s-6.056-13.5-13.5-13.5c-3.078,0-5.976,1.008-8.379,2.915
			C7.904,6.13,7.59,6.095,7.418,5.877c-0.172-0.216-0.136-0.53,0.081-0.702c2.581-2.049,5.693-3.132,9-3.132
			c7.995,0,14.5,6.505,14.5,14.5S24.494,31.043,16.499,31.043z" class="color263238 svgShape"></path></svg></g></svg>