<svg xmlns="http://www.w3.org/2000/svg" width="32" height="32" viewBox="0 0 32 32"><g transform="translate(.027 -1020.362)"><path fill="#f7e71b" d="m 2.5000008,1022.8621 0,26.0001 26.9464322,0 -26.9464322,-26.0001 z m 5.0524559,11.3752 10.1049123,9.75 -10.1049123,0 0,-9.75 z" color="#000" overflow="visible" style="isolation:auto;mix-blend-mode:normal"/><path fill="none" stroke="#000" d="M3 1026.8622l1 0M3 1028.8622l2 0M3 1030.8622l1 0M3 1032.8622l2 0M3 1034.8622l1 0M3 1036.8622l2 0M3 1038.8622l1 0M3 1040.8622l2 0M3 1042.8622l1 0M3 1044.8622l2 0M3 1046.8622l1 0"/><path fill="#f8d259" style="isolation:auto;mix-blend-mode:normal" d="m 2.1,2.3995469 0,1.1289062 24.747633,23.9707659 -24.647633,0 0,0.800781 26.647633,0 z M 6.453,13.174 l 0,10.25 1.3,0 0,-8.320313 z" color="#000" overflow="visible" transform="translate(0 1020.362)"/><path fill="#fff" style="isolation:auto;mix-blend-mode:normal" d="m 2.5000008,1022.8622 0,26 1,0 0,-25 25.8453122,25 z m 5.4522657,10.275 0,0.9648 9.6057345,9.2852 1,0 z" color="#000" overflow="visible"/><path fill="none" stroke="#000" stroke-dashoffset="1.5" stroke-linecap="round" stroke-linejoin="round" style="isolation:auto;mix-blend-mode:normal" d="m 2.5000008,1037.8622 0,1 m 0,2 0,0 m 0,2 0,6 26.9464322,0 -26.9464322,-26.0001 0,6.5 0,6.5001 m 5.0524559,-1.6249 10.1049123,9.75 -10.1049123,0 z" color="#000" overflow="visible"/><rect width="4" height="22" x="18" y="1024.862" fill="#f4606e" color="#000" overflow="visible" style="isolation:auto;mix-blend-mode:normal"/><path fill="#fff" stroke="#000" stroke-dashoffset="1.5" stroke-linecap="round" stroke-linejoin="round" d="M18 1046.8623l4 0-2 4zM18 1024.8622l0-1.5c0-.831.669008-1.5 1.500017-1.5l.999966 0c.831009 0 1.500017.669 1.500017 1.5l0 1.5z" color="#000" overflow="visible" style="isolation:auto;mix-blend-mode:normal"/><path fill="#f4606e" d="m 10.50005,1023.5025 0,-1.6378 3.07713,0 0,1.6117 m 0,10.1469 0,13.2364 -3.07713,0 0,-13.2364" color="#000" overflow="visible" style="isolation:auto;mix-blend-mode:normal"/><rect width="1.743" height="2" x="11.167" y="1046.862" fill="#fff" stroke="#000" stroke-dashoffset="1.5" stroke-linecap="round" stroke-linejoin="round" style="isolation:auto;mix-blend-mode:normal" color="#000" overflow="visible"/><path fill="none" stroke="#000" d="m 12.038614,1049.3622 0,1.9591"/><path fill="#fff" style="isolation:auto;mix-blend-mode:normal" d="m 10.50005,1023.5025 0,-1.6378 1.07713,0 0,1.6117 m 0,10.1469 0,13.2364 -1.07713,0 0,-13.2364" color="#000" overflow="visible"/><rect style="isolation:auto;mix-blend-mode:normal" width="5" height="10" x="9.5" y="1023.862" fill="#3ddef0" color="#000" overflow="visible"/><path fill="#f89963" d="m 13.57718,1023.5025 0,-1.6378 -1.07713,0 0,1.6117 m 0,10.1469 0,13.2364 1.07713,0 0,-13.2364" color="#000" overflow="visible" style="isolation:auto;mix-blend-mode:normal"/><path fill="#fff" d="m 9.500001,1023.8621 1,0 0,10 -1,0 z" color="#000" overflow="visible" style="isolation:auto;mix-blend-mode:normal"/><path fill="#30a2f2" style="isolation:auto;mix-blend-mode:normal" d="m 14.5,1023.8621 -1,0 0,10 1,0 z" color="#000" overflow="visible"/><path fill="#fff" style="isolation:auto;mix-blend-mode:normal" d="m 18.000002,1024.8622 0.999998,0 0,22.0001 -0.999998,0 z" color="#000" overflow="visible"/><rect width="5" height="10" x="9.5" y="1023.862" fill="none" stroke="#000" stroke-dashoffset="1.5" stroke-linecap="round" stroke-linejoin="round" color="#000" overflow="visible" style="isolation:auto;mix-blend-mode:normal"/><path fill="none" stroke="#000" stroke-dashoffset="1.5" stroke-linecap="round" stroke-linejoin="round" style="isolation:auto;mix-blend-mode:normal" d="m 10.50005,1023.5025 0,-1.6378 3.07713,0 0,1.6117 m 0,10.4468 0,12.9365 -3.07713,0 0,-12.9365" color="#000" overflow="visible"/><path fill="none" stroke="#000" stroke-linecap="round" stroke-linejoin="round" d="m 14.019339,1025.8625 -3.922378,0 -2.6148482,0 0,5.9928"/><path fill="#f89963" d="m 21.000004,1024.8622 0.999998,0 0,22.0001 -0.999998,0 z" color="#000" overflow="visible" style="isolation:auto;mix-blend-mode:normal"/><path fill="none" stroke="#000" stroke-dashoffset="1.5" stroke-linecap="round" stroke-linejoin="round" style="isolation:auto;mix-blend-mode:normal" d="m 22.000002,1031.8622 0,1.25 0,1.375 0,1.3751 0,5.5 0,5.5 -4,0 0,-22.0001 4,0 0,5" color="#000" overflow="visible"/></g></svg>