<svg xmlns="http://www.w3.org/2000/svg" viewBox="0 0 64 64"><path fill="#fffce9" d="M44,36.381l4.311-4.1A1,1,0,0,1,50,33V53a1,1,0,0,1-1,1H28a1,1,0,0,1-.689-1.724L29.7,50H23.414l-10,10H20V57h2v3h3V58h2v2h3V58h2v2h3V57h2v3h3V58h2v2h3V58h2v2h3V57h2v3h4V17.414l-12,12Z"/><rect width="4" height="4" x="23" y="30" fill="#fee9ab"/><rect width="4" height="4" x="34" y="40" fill="#fee9ab"/><path fill="#fffce9" d="M42,47V5a1,1,0,0,0-1-1H9A1,1,0,0,0,8,5V47a1,1,0,0,0,1,1H41A1,1,0,0,0,42,47ZM18,45a1,1,0,0,1-1,1H11a1,1,0,0,1-1-1V39a1,1,0,0,1,1-1h6a1,1,0,0,1,1,1Zm0-10a1,1,0,0,1-1,1H11a1,1,0,0,1-1-1V29a1,1,0,0,1,1-1h6a1,1,0,0,1,1,1Zm0-10a1,1,0,0,1-1,1H11a1,1,0,0,1-1-1V19a1,1,0,0,1,1-1h6a1,1,0,0,1,1,1ZM29,45a1,1,0,0,1-1,1H22a1,1,0,0,1-1-1V39a1,1,0,0,1,1-1h6a1,1,0,0,1,1,1Zm0-10a1,1,0,0,1-1,1H22a1,1,0,0,1-1-1V29a1,1,0,0,1,1-1h6a1,1,0,0,1,1,1Zm0-10a1,1,0,0,1-1,1H22a1,1,0,0,1-1-1V19a1,1,0,0,1,1-1h6a1,1,0,0,1,1,1ZM40,45a1,1,0,0,1-1,1H33a1,1,0,0,1-1-1V39a1,1,0,0,1,1-1h6a1,1,0,0,1,1,1Zm0-10a1,1,0,0,1-1,1H33a1,1,0,0,1-1-1V29a1,1,0,0,1,1-1h6a1,1,0,0,1,1,1Zm0-10a1,1,0,0,1-1,1H33a1,1,0,0,1-1-1V19a1,1,0,0,1,1-1h6a1,1,0,0,1,1,1Zm0-10a1,1,0,0,1-1,1H11a1,1,0,0,1-1-1V7a1,1,0,0,1,1-1H39a1,1,0,0,1,1,1Z"/><rect width="4" height="4" x="34" y="30" fill="#fee9ab"/><rect width="4" height="4" x="23" y="20" fill="#fee9ab"/><path fill="#fd7777" d="M12,14H38V8H12Zm21-3h2v2H33Zm-4,0h2v2H29Zm-4,0h2v2H25Z"/><rect width="4" height="4" x="34" y="20" fill="#fee9ab"/><rect width="4" height="4" x="12" y="20" fill="#fee9ab"/><rect width="4" height="4" x="23" y="40" fill="#fee9ab"/><rect width="4" height="4" x="12" y="40" fill="#fee9ab"/><rect width="4" height="4" x="12" y="30" fill="#fee9ab"/><path fill="#231f20" d="M39 6H11a1 1 0 0 0-1 1v8a1 1 0 0 0 1 1H39a1 1 0 0 0 1-1V7A1 1 0 0 0 39 6zm-1 8H12V8H38zM17 18H11a1 1 0 0 0-1 1v6a1 1 0 0 0 1 1h6a1 1 0 0 0 1-1V19A1 1 0 0 0 17 18zm-1 6H12V20h4zM28 18H22a1 1 0 0 0-1 1v6a1 1 0 0 0 1 1h6a1 1 0 0 0 1-1V19A1 1 0 0 0 28 18zm-1 6H23V20h4zM39 18H33a1 1 0 0 0-1 1v6a1 1 0 0 0 1 1h6a1 1 0 0 0 1-1V19A1 1 0 0 0 39 18zm-1 6H34V20h4zM17 28H11a1 1 0 0 0-1 1v6a1 1 0 0 0 1 1h6a1 1 0 0 0 1-1V29A1 1 0 0 0 17 28zm-1 6H12V30h4zM28 28H22a1 1 0 0 0-1 1v6a1 1 0 0 0 1 1h6a1 1 0 0 0 1-1V29A1 1 0 0 0 28 28zm-1 6H23V30h4zM39 28H33a1 1 0 0 0-1 1v6a1 1 0 0 0 1 1h6a1 1 0 0 0 1-1V29A1 1 0 0 0 39 28zm-1 6H34V30h4zM17 38H11a1 1 0 0 0-1 1v6a1 1 0 0 0 1 1h6a1 1 0 0 0 1-1V39A1 1 0 0 0 17 38zm-1 6H12V40h4zM28 38H22a1 1 0 0 0-1 1v6a1 1 0 0 0 1 1h6a1 1 0 0 0 1-1V39A1 1 0 0 0 28 38zm-1 6H23V40h4zM39 38H33a1 1 0 0 0-1 1v6a1 1 0 0 0 1 1h6a1 1 0 0 0 1-1V39A1 1 0 0 0 39 38zm-1 6H34V40h4z"/><path fill="#231f20" d="M57.383,14.076a1,1,0,0,0-1.09.217L44,26.586V5a3,3,0,0,0-3-3H9A3,3,0,0,0,6,5V47a3,3,0,0,0,3,3H20.586L10.293,60.293A1,1,0,0,0,11,62H57a1,1,0,0,0,1-1V15A1,1,0,0,0,57.383,14.076ZM32.6,50H41a3,3,0,0,0,3-3V39.143l4-3.81V52H30.5ZM8,47V5A1,1,0,0,1,9,4H41a1,1,0,0,1,1,1V47a1,1,0,0,1-1,1H9A1,1,0,0,1,8,47ZM56,60H52V57H50v3H47V58H45v2H42V58H40v2H37V57H35v3H32V58H30v2H27V58H25v2H22V57H20v3H13.414l10-10H29.7l-2.389,2.276A1,1,0,0,0,28,54H49a1,1,0,0,0,1-1V33a1,1,0,0,0-1.689-.724L44,36.381V29.414l12-12Z"/><rect width="2" height="2" x="33" y="11" fill="#231f20"/><rect width="2" height="2" x="29" y="11" fill="#231f20"/><rect width="2" height="2" x="25" y="11" fill="#231f20"/></svg>