<svg xmlns="http://www.w3.org/2000/svg" enable-background="new 0 0 70 70" viewBox="0 0 70 70"><path d="M66.9998932,67.999733h-64c-0.5527344,0-0.9999999-0.4477539-0.9999999-1v-64
				c0-0.4042969,0.2431639-0.769043,0.6171874-0.9238281c0.375-0.1533203,0.8046875-0.0698242,1.0898438,0.2167969l64,64
				c0.2861328,0.2861328,0.3720703,0.7158203,0.2167969,1.0898438C67.7694244,67.7560806,67.4041901,67.999733,66.9998932,67.999733
				z M3.9998899,65.999733h60.5859413L3.9998899,5.4137921V65.999733z"/><path d="M41.5516472 56.6989479h-27.25c-.5527344 0-1-.4477539-1-1v-27.25c0-.4042969.2431641-.769043.6171875-.9238281.3740234-.1533203.8037109-.0698242 1.0898438.2167969l27.25 27.25c.2861328.2861328.3720703.7158203.2167969 1.0898438C42.3211784 56.4552956 41.9559441 56.6989479 41.5516472 56.6989479zM15.3016481 54.6989479h23.8359375L15.3016481 30.8630104V54.6989479zM7.5360227 17.6569557H2.9998899c-.5527344 0-.9999999-.4477539-.9999999-1s.4472655-.999999.9999999-.999999h4.5361328c.5527349 0 1.0000005.447753 1.0000005.999999S8.0887575 17.6569557 7.5360227 17.6569557zM9.4110231 24.8512917H2.9998899c-.5527344 0-.9999999-.4477539-.9999999-1s.4472655-1 .9999999-1h6.4111333c.5527344 0 1 .4477539 1 1S9.9637575 24.8512917 9.4110231 24.8512917zM7.1610227 32.0461159H2.9998899c-.5527344 0-.9999999-.4477539-.9999999-1s.4472655-1 .9999999-1h4.1611328c.5527344 0 1.0000005.4477539 1.0000005 1S7.713757 32.0461159 7.1610227 32.0461159zM10.0360231 39.2404518H2.9998899c-.5527344 0-.9999999-.4477539-.9999999-1s.4472655-1 .9999999-1h7.0361333c.5527344 0 1 .4477539 1 1S10.5887575 39.2404518 10.0360231 39.2404518zM6.9110227 46.4347878H2.9998899c-.5527344 0-.9999999-.4477539-.9999999-1s.4472655-1 .9999999-1h3.9111328c.5527344 0 1 .4477539 1 1S7.463757 46.4347878 6.9110227 46.4347878zM9.3485231 53.6291237H2.9998899c-.5527344 0-.9999999-.4477539-.9999999-1s.4472655-1 .9999999-1h6.3486333c.5527344 0 1 .4477539 1 1S9.9012575 53.6291237 9.3485231 53.6291237zM10.0360231 60.8239479H2.9998899c-.5527344 0-.9999999-.4477539-.9999999-1s.4472655-1 .9999999-1h7.0361333c.5527344 0 1 .4477539 1 1S10.5887575 60.8239479 10.0360231 60.8239479z"/></svg>